<mxfile host="65bd71144e">
    <diagram name="ページ1" id="DxWnlSY1pZxc-afIFpsx">
        <mxGraphModel dx="832" dy="563" grid="1" gridSize="10" guides="1" tooltips="1" connect="1" arrows="1" fold="1" page="1" pageScale="1" pageWidth="827" pageHeight="1169" math="0" shadow="0">
            <root>
                <mxCell id="0"/>
                <mxCell id="1" parent="0"/>
                <mxCell id="hM0hZbFXiP9ybR8cYVs1-1" value="ユーザー" style="shape=umlActor;verticalLabelPosition=bottom;verticalAlign=top;html=1;outlineConnect=0;" parent="1" vertex="1">
                    <mxGeometry x="150" y="190" width="30" height="60" as="geometry"/>
                </mxCell>
                <mxCell id="hM0hZbFXiP9ybR8cYVs1-2" value="" style="rounded=0;whiteSpace=wrap;html=1;" parent="1" vertex="1">
                    <mxGeometry x="300" y="90" width="460" height="370" as="geometry"/>
                </mxCell>
                <mxCell id="hM0hZbFXiP9ybR8cYVs1-3" value="システム内容" style="rounded=0;whiteSpace=wrap;html=1;fillColor=none;strokeColor=none;" parent="1" vertex="1">
                    <mxGeometry x="470" y="90" width="120" height="60" as="geometry"/>
                </mxCell>
                <mxCell id="hM0hZbFXiP9ybR8cYVs1-4" value="名前を変更する" style="ellipse;whiteSpace=wrap;html=1;" parent="1" vertex="1">
                    <mxGeometry x="395" y="140" width="270" height="80" as="geometry"/>
                </mxCell>
                <mxCell id="hM0hZbFXiP9ybR8cYVs1-5" value="時刻に応じた挨拶をする" style="ellipse;whiteSpace=wrap;html=1;" parent="1" vertex="1">
                    <mxGeometry x="395" y="240" width="270" height="80" as="geometry"/>
                </mxCell>
                <mxCell id="hM0hZbFXiP9ybR8cYVs1-8" value="" style="endArrow=none;html=1;rounded=0;entryX=0.019;entryY=0.375;entryDx=0;entryDy=0;entryPerimeter=0;" parent="1" source="hM0hZbFXiP9ybR8cYVs1-1" target="hM0hZbFXiP9ybR8cYVs1-4" edge="1">
                    <mxGeometry width="50" height="50" relative="1" as="geometry">
                        <mxPoint x="50" y="370" as="sourcePoint"/>
                        <mxPoint x="100" y="320" as="targetPoint"/>
                    </mxGeometry>
                </mxCell>
                <mxCell id="hM0hZbFXiP9ybR8cYVs1-9" value="" style="endArrow=none;html=1;rounded=0;entryX=0;entryY=0.5;entryDx=0;entryDy=0;" parent="1" source="hM0hZbFXiP9ybR8cYVs1-1" target="hM0hZbFXiP9ybR8cYVs1-5" edge="1">
                    <mxGeometry width="50" height="50" relative="1" as="geometry">
                        <mxPoint x="210" y="376" as="sourcePoint"/>
                        <mxPoint x="427" y="360" as="targetPoint"/>
                    </mxGeometry>
                </mxCell>
                <mxCell id="hM0hZbFXiP9ybR8cYVs1-10" value="" style="endArrow=classic;html=1;rounded=0;dashed=1;dashPattern=8 8;exitX=0.663;exitY=0.973;exitDx=0;exitDy=0;exitPerimeter=0;" parent="1" source="hM0hZbFXiP9ybR8cYVs1-11" target="hM0hZbFXiP9ybR8cYVs1-1" edge="1">
                    <mxGeometry width="50" height="50" relative="1" as="geometry">
                        <mxPoint x="100" y="150" as="sourcePoint"/>
                        <mxPoint x="110" y="95" as="targetPoint"/>
                    </mxGeometry>
                </mxCell>
                <mxCell id="hM0hZbFXiP9ybR8cYVs1-11" value="アクター" style="rounded=0;whiteSpace=wrap;html=1;fillColor=none;strokeColor=none;" parent="1" vertex="1">
                    <mxGeometry x="20" y="90" width="120" height="60" as="geometry"/>
                </mxCell>
                <mxCell id="2" value="RoboDog" style="text;html=1;align=center;verticalAlign=middle;whiteSpace=wrap;rounded=0;" vertex="1" parent="1">
                    <mxGeometry x="200" y="100" width="60" height="30" as="geometry"/>
                </mxCell>
                <mxCell id="3" value="" style="ellipse;whiteSpace=wrap;html=1;" vertex="1" parent="1">
                    <mxGeometry x="395" y="346" width="270" height="80" as="geometry"/>
                </mxCell>
                <mxCell id="4" value="" style="endArrow=none;html=1;rounded=0;entryX=0;entryY=0.5;entryDx=0;entryDy=0;" edge="1" parent="1" target="3" source="hM0hZbFXiP9ybR8cYVs1-1">
                    <mxGeometry width="50" height="50" relative="1" as="geometry">
                        <mxPoint x="180" y="330" as="sourcePoint"/>
                        <mxPoint x="427" y="466" as="targetPoint"/>
                    </mxGeometry>
                </mxCell>
            </root>
        </mxGraphModel>
    </diagram>
</mxfile>